<?xml version="1.0" encoding="utf-8"?>
<svg
	version="1.1"
	xmlns="http://www.w3.org/2000/svg"
	xmlns:xlink="http://www.w3.org/1999/xlink"
	x="0%" y="0%"
	width="100%" height="100%"
	viewBox="6 5 10.0 10.0"
	enable-background="new 0 0 24.0 24.0"
	xml:space="preserve">
	<path
		fill="#FFFFFF"
		stroke="#000000"
		fill-opacity="1.000"
		stroke-opacity="1.000"
		fill-rule="nonzero"
		stroke-width="0.24"
		stroke-linejoin="miter"
		stroke-linecap="square"
		d="M8.96,7.15L13.34,7.15A0.73 0.73 0 0 1 14.08,7.88L14.08,13.99A0.73 0.73 0 0 1 13.34,14.72L8.96,14.72A0.73 0.73 0 0 1 8.22,13.99L8.22,7.88A0.73 0.73 0 0 1 8.96,7.15z"/>
	<path
		fill="#FFFFFF"
		stroke="#000000"
		fill-opacity="1.000"
		stroke-opacity="1.000"
		fill-rule="nonzero"
		stroke-width="0.12"
		stroke-linejoin="miter"
		stroke-linecap="square"
		d="M9.91,6.28C10.53,6.89,10.56,7.87,9.97,8.48C9.37,9.09,8.38,9.09,7.76,8.48C7.14,7.88,7.11,6.89,7.70,6.28C8.30,5.67,9.28,5.67,9.91,6.28z"/>
	<path
		fill="#FFFFFF"
		stroke="#000000"
		fill-opacity="1.000"
		stroke-opacity="1.000"
		fill-rule="nonzero"
		stroke-width="0.12"
		stroke-linejoin="miter"
		stroke-linecap="square"
		d="M11.34,6.30C11.86,6.30,12.28,6.61,12.28,6.99C12.28,7.38,11.86,7.69,11.34,7.69C10.82,7.69,10.40,7.38,10.40,6.99C10.40,6.61,10.82,6.30,11.34,6.30z"/>
	<path
		fill="#FFFFFF"
		stroke="#000000"
		fill-opacity="1.000"
		stroke-opacity="1.000"
		fill-rule="nonzero"
		stroke-width="0.12"
		stroke-linejoin="miter"
		stroke-linecap="square"
		d="M8.87,9.92C8.84,10.44,8.51,10.84,8.13,10.82C7.75,10.80,7.46,10.37,7.48,9.85C7.51,9.33,7.84,8.93,8.22,8.95C8.61,8.97,8.90,9.40,8.87,9.92z"/>
	<path
		fill="#FFFFFF"
		stroke="#000000"
		fill-opacity="1.000"
		stroke-opacity="1.000"
		fill-rule="nonzero"
		stroke-width="0.12"
		stroke-linejoin="round"
		stroke-linecap="square"
		d="M8.45,5.98Q8.45,3.80,9.64,6.13"/>
	<path
		fill="#FFFFFF"
		stroke="#000000"
		fill-opacity="1.000"
		stroke-opacity="1.000"
		fill-rule="nonzero"
		stroke-width="0.12"
		stroke-linejoin="round"
		stroke-linecap="square"
		d="M7.69,6.52Q5.55,5.71,7.37,7.74"/>
	<path
		fill="#000000"
		stroke="#000000"
		fill-opacity="1.000"
		stroke-opacity="1.000"
		fill-rule="nonzero"
		stroke-width="0.04253012"
		stroke-linejoin="round"
		stroke-linecap="square"
		d="M10.94,8.50C11.00,8.38,11.05,8.26,11.10,8.26C11.15,8.26,11.19,8.38,11.24,8.50C11.29,8.61,11.35,8.71,11.42,8.80C11.48,8.89,11.55,8.97,11.66,9.09C11.76,9.21,11.89,9.37,12.01,9.52C12.12,9.66,12.23,9.79,12.35,9.94C12.46,10.10,12.60,10.28,12.70,10.42C12.79,10.57,12.86,10.67,12.91,10.76C12.96,10.84,13.00,10.92,13.04,11.01C13.09,11.10,13.13,11.21,13.16,11.30C13.19,11.39,13.21,11.46,13.21,11.53C13.22,11.61,13.22,11.70,13.20,11.81C13.18,11.91,13.15,12.02,13.10,12.12C13.04,12.21,12.96,12.29,12.87,12.35C12.78,12.42,12.69,12.46,12.58,12.49C12.47,12.52,12.33,12.54,12.19,12.51C12.06,12.48,11.93,12.42,11.81,12.32C11.70,12.23,11.60,12.12,11.51,11.99C11.41,11.86,11.32,11.72,11.29,11.72C11.26,11.73,11.29,11.89,11.31,12.01C11.34,12.13,11.37,12.22,11.41,12.33C11.45,12.45,11.50,12.60,11.54,12.72C11.59,12.83,11.62,12.92,11.66,13.01C11.69,13.09,11.73,13.18,11.77,13.23C11.81,13.29,11.84,13.31,11.84,13.32C11.84,13.33,11.79,13.33,11.76,13.33C11.72,13.33,11.70,13.33,11.67,13.33C11.64,13.33,11.61,13.33,11.56,13.33C11.52,13.33,11.45,13.33,11.39,13.33C11.33,13.34,11.27,13.34,11.20,13.34C11.12,13.34,11.03,13.34,10.94,13.34C10.85,13.34,10.76,13.34,10.68,13.34C10.60,13.34,10.53,13.34,10.50,13.34C10.46,13.33,10.46,13.33,10.43,13.33C10.40,13.33,10.36,13.34,10.35,13.33C10.35,13.32,10.38,13.30,10.40,13.27C10.42,13.25,10.43,13.23,10.44,13.21C10.46,13.18,10.47,13.15,10.50,13.08C10.53,13.02,10.57,12.94,10.62,12.80C10.67,12.67,10.73,12.50,10.78,12.36C10.82,12.23,10.86,12.13,10.88,12.01C10.91,11.89,10.93,11.74,10.91,11.72C10.89,11.69,10.83,11.79,10.79,11.86C10.74,11.93,10.71,11.97,10.64,12.05C10.56,12.13,10.45,12.25,10.36,12.33C10.26,12.41,10.20,12.44,10.13,12.47C10.06,12.49,10.00,12.51,9.92,12.52C9.83,12.53,9.73,12.52,9.64,12.50C9.54,12.49,9.45,12.45,9.36,12.40C9.28,12.34,9.21,12.27,9.15,12.19C9.09,12.11,9.04,12.03,9.01,11.93C8.98,11.84,8.97,11.73,8.97,11.64C8.97,11.54,8.98,11.44,9.01,11.34C9.04,11.24,9.08,11.14,9.14,11.03C9.19,10.91,9.26,10.78,9.33,10.66C9.40,10.55,9.47,10.45,9.54,10.35C9.61,10.26,9.68,10.16,9.79,10.01C9.91,9.85,10.08,9.63,10.21,9.48C10.34,9.32,10.43,9.23,10.51,9.13C10.60,9.03,10.69,8.91,10.76,8.80C10.83,8.70,10.88,8.60,10.94,8.50z"/>
	<path
		fill="#000000"
		stroke="#000000"
		fill-opacity="1.000"
		stroke-opacity="1.000"
		fill-rule="nonzero"
		stroke-width="0.04253012"
		stroke-linejoin="round"
		stroke-linecap="square"
		d="M11.10,7.12L11.10,7.62"/>
	<path
		fill="#000000"
		stroke="#000000"
		fill-opacity="1.000"
		stroke-opacity="1.000"
		fill-rule="nonzero"
		stroke-width="0.04253012"
		stroke-linejoin="round"
		stroke-linecap="square"
		d="M11.58,7.12L11.58,7.62"/>
	<path
		fill="#000000"
		stroke="#000000"
		fill-opacity="1.000"
		stroke-opacity="1.000"
		fill-rule="nonzero"
		stroke-width="0.04253012"
		stroke-linejoin="round"
		stroke-linecap="square"
		d="M8.28,9.64L8.78,9.65"/>
	<path
		fill="#000000"
		stroke="#000000"
		fill-opacity="1.000"
		stroke-opacity="1.000"
		fill-rule="nonzero"
		stroke-width="0.04253012"
		stroke-linejoin="round"
		stroke-linecap="square"
		d="M8.28,10.17L8.78,10.18"/>
	<path
		fill="#FFFFFF"
		stroke="#000000"
		fill-opacity="1.000"
		stroke-opacity="1.000"
		fill-rule="nonzero"
		stroke-width="0.048"
		stroke-linejoin="round"
		stroke-linecap="square"
		d="M9.88,7.54Q10.26,8.31,9.55,8.25Q9.53,8.96,8.80,8.50"/>
	<path
		fill="#FAB4FF"
		stroke="#000000"
		fill-opacity="1.000"
		stroke-opacity="1.000"
		fill-rule="nonzero"
		stroke-width="0.048"
		stroke-linejoin="round"
		stroke-linecap="square"
		d="M9.55,7.82C9.72,8.23,9.46,8.43,9.09,8.21L9.55,7.82z"/>
	<path
		fill="#FFFFFF"
		stroke="#000000"
		fill-opacity="1.000"
		stroke-opacity="1.000"
		fill-rule="nonzero"
		stroke-width="0.072"
		stroke-linejoin="round"
		stroke-linecap="square"
		d="M7.94,8.23Q7.85,7.25,8.77,7.59"/>
	<path
		fill="#FFFFFF"
		stroke="#000000"
		fill-opacity="1.000"
		stroke-opacity="1.000"
		fill-rule="nonzero"
		stroke-width="0.072"
		stroke-linejoin="round"
		stroke-linecap="square"
		d="M9.13,7.34Q9.04,6.36,9.96,6.70"/>
	<path
		fill="#FFFFFF"
		stroke="#000000"
		fill-opacity="1.000"
		stroke-opacity="1.000"
		fill-rule="nonzero"
		stroke-width="0.031999707"
		stroke-linejoin="round"
		stroke-linecap="square"
		d="M8.23,8.62L8.92,8.34"/>
	<path
		fill="#FFFFFF"
		stroke="#000000"
		fill-opacity="1.000"
		stroke-opacity="1.000"
		fill-rule="nonzero"
		stroke-width="0.031999707"
		stroke-linejoin="round"
		stroke-linecap="square"
		d="M8.55,8.97L9.06,8.43"/>
	<path
		fill="#FFFFFF"
		stroke="#000000"
		fill-opacity="1.000"
		stroke-opacity="1.000"
		fill-rule="nonzero"
		stroke-width="0.031999707"
		stroke-linejoin="round"
		stroke-linecap="square"
		d="M8.98,9.26L9.20,8.54"/>
	<path
		fill="#FFFFFF"
		stroke="#000000"
		fill-opacity="1.000"
		stroke-opacity="1.000"
		fill-rule="nonzero"
		stroke-width="0.031999707"
		stroke-linejoin="round"
		stroke-linecap="square"
		d="M9.67,7.71L10.08,7.09"/>
	<path
		fill="#FFFFFF"
		stroke="#000000"
		fill-opacity="1.000"
		stroke-opacity="1.000"
		fill-rule="nonzero"
		stroke-width="0.031999707"
		stroke-linejoin="round"
		stroke-linecap="square"
		d="M9.78,7.81L10.38,7.36"/>
	<path
		fill="#FFFFFF"
		stroke="#000000"
		fill-opacity="1.000"
		stroke-opacity="1.000"
		fill-rule="nonzero"
		stroke-width="0.031999707"
		stroke-linejoin="round"
		stroke-linecap="square"
		d="M9.87,7.95L10.58,7.69"/>
</svg>